<?xml version="1.0" standalone="no"?>
<!DOCTYPE svg PUBLIC "-//W3C//DTD SVG 20010904//EN"
 "http://www.w3.org/TR/2001/REC-SVG-20010904/DTD/svg10.dtd">
<svg version="1.0" xmlns="http://www.w3.org/2000/svg"
 width="1200.000000pt" height="1200.000000pt" viewBox="0 0 1200.000000 1200.000000"
 preserveAspectRatio="xMidYMid meet">
<metadata>
Created by potrace 1.11, written by Peter Selinger 2001-2013
</metadata>
<g transform="translate(0.000000,1200.000000) scale(0.100000,-0.100000)"
fill="#000000" stroke="none">
<path d="M0 6000 l0 -6000 6000 0 6000 0 0 6000 0 6000 -6000 0 -6000 0 0
-6000z m6871 4788 c2258 -1835 3313 -2692 3626 -2946 188 -152 342 -281 342
-287 0 -5 -19 -32 -43 -60 -34 -37 -47 -47 -58 -38 -42 33 -698 565 -1853
1503 -720 586 -1663 1351 -2095 1702 -432 351 -789 637 -793 635 -9 -3 -248
-196 -2211 -1791 -1116 -907 -2482 -2016 -2524 -2049 -11 -9 -24 0 -58 38 -24
28 -43 55 -43 60 0 6 300 254 667 551 779 633 3030 2462 3701 3007 255 208
470 376 477 373 6 -2 396 -317 865 -698z m-803 -1970 c77 -105 81 -136 32
-239 l-34 -70 32 -63 c39 -76 40 -106 7 -168 -31 -59 -31 -67 1 -129 34 -64
29 -111 -21 -185 -39 -60 -53 -69 -90 -60 -37 9 -32 49 12 113 l36 53 -31 61
c-18 34 -32 72 -32 84 0 12 14 49 31 83 l31 60 -31 55 c-39 69 -40 110 -1 187
17 33 30 67 30 77 0 10 -18 44 -40 77 -44 65 -47 77 -24 100 27 28 52 18 92
-36z m-272 -339 c59 -91 65 -132 30 -195 -14 -25 -26 -57 -26 -69 0 -12 12
-44 26 -69 35 -62 29 -105 -25 -185 -35 -51 -46 -61 -71 -61 -19 0 -33 7 -40
21 -10 18 -6 30 24 79 43 69 44 84 11 146 -14 26 -25 59 -25 74 0 15 11 48 25
74 33 61 31 80 -10 146 -37 58 -42 79 -23 98 29 29 57 14 104 -59z m618 -95
c23 -22 21 -30 -26 -102 l-41 -63 32 -64 c41 -79 38 -106 -19 -194 -37 -57
-43 -62 -72 -59 -53 5 -57 28 -15 96 20 33 37 68 37 79 0 10 -12 36 -25 58
-44 71 -32 127 47 228 32 40 57 46 82 21z m-904 -179 c72 -105 74 -145 10
-244 -34 -52 -44 -61 -69 -61 -34 0 -55 27 -44 57 3 10 19 37 35 60 36 54 35
73 -7 136 -41 60 -43 80 -13 101 28 20 49 8 88 -49z m-295 -279 c37 -16 75
-68 75 -103 l0 -23 788 0 c850 0 824 1 851 -54 12 -25 10 -45 -18 -175 -17
-80 -31 -148 -31 -151 0 -3 42 -5 92 -5 118 0 177 -24 247 -101 119 -130 115
-321 -8 -445 -67 -67 -152 -103 -366 -157 l-140 -35 -33 -66 c-18 -37 -62
-101 -97 -144 l-65 -77 325 0 325 0 12 -25 c9 -21 7 -30 -16 -64 -58 -83 -98
-121 -164 -153 l-67 -33 -1055 0 -1055 0 -60 28 c-33 16 -71 38 -84 50 -42 39
-111 135 -111 154 0 42 9 43 368 43 l344 0 -62 68 c-71 78 -135 199 -170 320
l-24 82 -73 0 c-81 0 -136 17 -152 48 -7 13 -11 86 -11 182 l0 162 28 27 c15
14 40 36 57 48 l30 21 -44 179 c-30 119 -42 188 -37 206 11 43 59 67 139 67
62 0 67 2 67 21 0 33 37 85 73 103 40 20 78 20 122 2z m2978 -2928 c-51 -211
-117 -479 -145 -595 l-52 -213 -49 0 c-42 0 -48 2 -43 18 9 27 233 928 263
1060 l27 112 46 0 47 0 -94 -382z m-1477 321 c204 -37 270 -202 153 -384 -18
-28 -120 -137 -226 -242 l-195 -193 171 0 c107 0 179 4 195 12 24 10 66 79 66
106 0 7 16 12 41 12 l40 0 -2 -121 c-1 -66 -4 -129 -6 -140 -5 -18 -18 -19
-319 -19 l-314 0 0 71 0 71 145 149 c209 215 257 297 258 448 1 118 -42 173
-126 157 -60 -11 -87 -59 -102 -178 -6 -45 -8 -48 -36 -48 -43 0 -95 24 -114
54 -24 36 -23 106 3 148 52 84 211 126 368 97z m-2955 -96 c0 -49 2 -107 5
-130 l6 -43 -45 0 -46 0 -6 48 c-15 107 -44 132 -160 132 l-65 0 0 -389 0
-390 22 -15 c12 -9 39 -16 60 -16 37 0 38 -1 38 -35 l0 -35 -230 0 -230 0 0
35 c0 35 0 35 43 35 32 0 49 6 63 21 18 20 19 41 19 403 l0 381 -60 3 c-87 5
-133 -11 -151 -53 -8 -19 -14 -49 -14 -67 0 -48 -12 -60 -54 -56 -20 2 -36 6
-36 11 0 4 0 61 0 127 l0 120 420 0 420 0 1 -87z m869 -38 l0 -125 -44 0 -45
0 -7 57 c-5 44 -14 64 -35 85 -27 28 -29 28 -153 28 l-126 0 0 -170 0 -170
160 0 160 0 0 -40 0 -40 -160 0 -160 0 0 -190 0 -190 144 0 c137 0 146 1 172
23 19 17 30 40 39 83 l11 59 49 3 48 3 -7 -32 c-3 -17 -6 -74 -6 -125 l0 -94
-395 0 -395 0 0 35 c0 35 0 35 43 35 32 0 49 6 63 21 18 20 19 41 19 389 0
347 -1 370 -19 389 -14 15 -31 21 -63 21 -43 0 -43 0 -43 35 l0 35 375 0 375
0 0 -125z m880 -222 c68 -192 136 -383 152 -425 31 -82 63 -118 104 -118 23 0
27 -4 27 -35 0 -8 -1 -19 -2 -25 -1 -6 -82 -10 -221 -10 l-220 0 0 35 c0 34 1
35 39 35 77 0 88 45 43 170 l-27 75 -167 3 -167 2 -25 -80 c-15 -45 -26 -93
-26 -107 0 -40 27 -63 74 -63 41 0 42 -1 42 -35 l0 -35 -173 0 -173 0 0 35 c0
31 3 35 26 35 54 0 73 38 234 474 l154 416 91 0 91 0 124 -347z m2170 37 l0
-310 70 0 70 0 0 -45 0 -45 -70 0 -70 0 0 -64 c0 -81 18 -106 81 -113 43 -5
45 -6 45 -39 l0 -34 -236 0 -236 0 0 34 c0 34 0 34 55 38 74 7 91 28 91 114
l0 64 -185 0 -185 0 0 41 c0 37 24 82 191 355 l191 314 94 0 94 0 0 -310z
m1380 279 c0 -17 -82 -227 -187 -480 l-187 -449 -53 0 c-29 0 -53 3 -53 6 0 3
77 180 171 393 94 212 173 392 176 399 4 9 -39 12 -196 12 -197 0 -201 0 -215
-22 -8 -13 -18 -42 -22 -65 -6 -42 -7 -43 -47 -43 l-40 0 6 128 c4 70 7 133 7
140 0 9 71 12 320 12 l320 0 0 -31z m-7764 -722 c42 -36 816 -665 1159 -943
116 -93 631 -512 1145 -930 514 -418 1054 -857 1200 -975 146 -119 474 -385
729 -593 263 -214 470 -375 477 -372 8 3 364 290 791 638 428 347 1365 1109
2083 1692 718 583 1431 1163 1585 1288 154 125 283 228 287 228 10 0 89 -102
86 -111 -2 -4 -163 -137 -358 -296 -195 -159 -751 -610 -1235 -1004 -2503
-2035 -3231 -2623 -3245 -2623 -8 0 -206 155 -440 345 -234 190 -1003 815
-1710 1389 -707 574 -1586 1289 -1955 1588 -369 300 -685 556 -702 570 -18 13
-33 28 -33 32 0 11 80 110 89 110 4 0 25 -15 47 -33z"/>
<path d="M5126 7834 c-26 -25 -19 -34 29 -34 46 0 58 13 33 38 -17 17 -44 15
-62 -4z"/>
<path d="M4909 7705 c-5 -4 58 -271 67 -283 1 -2 12 3 23 10 20 12 21 20 19
143 l-3 130 -50 3 c-28 2 -53 0 -56 -3z"/>
<path d="M5117 7703 c-4 -3 -7 -61 -7 -128 l0 -122 105 -87 c58 -48 110 -96
115 -106 14 -26 13 -326 -1 -352 -16 -30 -71 -48 -148 -48 l-69 0 22 -73 c46
-150 125 -267 236 -351 l62 -46 459 0 460 0 53 39 c100 74 190 195 231 311 15
43 215 933 215 958 0 9 -186 12 -863 12 -475 0 -867 -3 -870 -7z m401 -105
c17 -17 15 -44 -4 -62 -23 -23 -225 -23 -248 0 -19 18 -20 28 -6 55 10 17 22
19 128 19 79 0 122 -4 130 -12z m1170 0 c7 -7 12 -21 12 -33 0 -45 3 -45 -535
-45 -538 0 -535 0 -535 45 0 12 5 26 12 33 17 17 1029 17 1046 0z m-1367 -838
c16 -9 19 -22 19 -85 0 -63 -3 -76 -19 -85 -48 -25 -71 2 -71 85 0 83 23 110
71 85z m239 -10 c20 -20 28 -97 14 -134 -10 -26 -41 -38 -64 -26 -17 9 -20 21
-20 85 0 60 3 76 18 84 24 15 29 14 52 -9z m231 10 c16 -9 19 -22 19 -85 0
-63 -3 -76 -19 -85 -48 -25 -71 2 -71 85 0 83 23 110 71 85z m235 -4 c15 -12
19 -27 19 -81 0 -54 -4 -69 -19 -81 -11 -8 -23 -14 -26 -14 -3 0 -15 6 -26 14
-15 12 -19 27 -19 81 0 54 4 69 19 81 11 8 23 14 26 14 3 0 15 -6 26 -14z
m238 -2 c11 -11 16 -35 16 -79 0 -83 -23 -110 -71 -85 -16 9 -19 22 -19 85 0
60 3 76 18 84 24 15 38 13 56 -5z m227 6 c16 -9 19 -22 19 -85 0 -64 -3 -76
-20 -85 -23 -12 -54 0 -64 26 -14 37 -6 114 14 134 23 23 25 23 51 10z"/>
<path d="M4962 7284 l-93 -75 3 -127 3 -127 188 -3 187 -2 0 133 0 134 -89 71
c-48 40 -92 72 -97 72 -5 0 -51 -34 -102 -76z"/>
<path d="M6906 7316 c-21 -8 -42 -18 -47 -23 -9 -9 -119 -506 -114 -512 11
-11 275 69 346 105 211 106 147 423 -88 440 -36 3 -73 -1 -97 -10z"/>
<path d="M4700 6295 c0 -10 47 -48 85 -68 l40 -22 1035 0 c966 0 1038 1 1081
18 25 9 58 31 74 47 l29 30 -1172 0 c-645 0 -1172 -2 -1172 -5z"/>
<path d="M5220 5093 c-13 -37 -45 -130 -71 -205 l-48 -138 139 0 139 0 -43
128 c-23 70 -51 159 -61 197 -10 39 -21 74 -25 78 -4 5 -18 -22 -30 -60z"/>
<path d="M7450 5107 c-18 -34 -82 -142 -142 -239 l-108 -178 139 0 138 0 6
238 c3 130 4 238 3 239 -1 1 -17 -26 -36 -60z"/>
</g>
</svg>
